# xmcd
#
# Track frame offsets: 
#        183
#        18443
#        32718
#        50348
#        65683
#        84958
#        100068
#        119915
#        133788
#        146763
#        158730
#        174598
#        188998
#        204998
#        223098
#        234258
#        246735
#        261975
#        273615
#        284675
#
# Disc length: 4027 seconds
#
# Revision: 4
# Processed by: cddbd v1.5.2PL0 Copyright (c) Steve Scherf et al.
# Submitted via: ExactAudioCopyFreeDBPlugin 1.0
#
DISCID=3b0fb914
DTITLE=Fátima Guedes - 2 em 1 - Fátima Guedes and Lápis de Cor
DYEAR=1980
DGENRE=MPB
TTITLE0=Mais Uma Boca
TTITLE1=Aldeia Modelo
TTITLE2=Trastes
TTITLE3=O Bloco das Mimosas Borboletas
TTITLE4=Paladar
TTITLE5=Dancing Cassino
TTITLE6=Condenados
TTITLE7=Cheiro de Mato
TTITLE8=Tanto que Aprendi de Amor
TTITLE9=Dor Medonha
TTITLE10=Arco-íris
TTITLE11=Fraqueza
TTITLE12=Pelo Cansaço
TTITLE13=No Fim da Casa (O Quarto do Meu Avô)
TTITLE14=A Bailarina
TTITLE15=Lápis de Cor
TTITLE16=Desacostumei de Amor
TTITLE17=Celeste
TTITLE18=Bicho Medo
TTITLE19=Eu
EXTD=
EXTT0=
EXTT1=
EXTT2=
EXTT3=
EXTT4=
EXTT5=
EXTT6=
EXTT7=
EXTT8=
EXTT9=
EXTT10=
EXTT11=
EXTT12=
EXTT13=
EXTT14=
EXTT15=
EXTT16=
EXTT17=
EXTT18=
EXTT19=
PLAYORDER=
